<svg xmlns="http://www.w3.org/2000/svg" width="79" height="104" viewBox="0 0 79 104" fill="none">
<path d="M32.576 84.42H35.9831V103.966H31.3368C23.0269 103.966 15.0572 100.666 9.18061 94.7902C3.30402 88.9148 0.00171604 80.9459 0 72.636V0C5.18399 0 10.1556 2.05933 13.8213 5.72497C17.4869 9.3906 19.5462 14.3623 19.5462 19.5463V71.387C19.5462 74.843 20.9189 78.1575 23.3624 80.6016C25.8058 83.0457 29.12 84.4192 32.576 84.42V84.42Z" fill="#FDF736"/>
<path d="M78.4826 0V72.636C78.4826 76.7512 77.6721 80.8261 76.0972 84.628C74.5224 88.43 72.2142 91.8845 69.3043 94.7944C66.3944 97.7043 62.9399 100.013 59.1379 101.587C55.336 103.162 51.261 103.973 47.1458 103.973H42.4995V84.42H45.9066C49.3626 84.4192 52.6768 83.0456 55.1202 80.6016C57.5637 78.1575 58.9364 74.843 58.9364 71.387V19.5463C58.9364 14.3623 60.9957 9.3906 64.6613 5.72496C68.3269 2.05933 73.2986 0 78.4826 0V0Z" fill="#FDF736"/>
</svg>